# xmcd CD database file
#
# Track frame offsets:
#	183
#	122283
#	142008
#	193458
#	223083
#	271020
#
# Disc length: 4386 seconds
#
# Revision: 0
# Processed by: cddbd v1.5.2PL0 Copyright (c) Steve Scherf et al.
# Submitted via: CDex 1.70beta2
#
DISCID=5b112006
DTITLE=Deuter - Sands of time cd2
DYEAR=1991
DGENRE=New Age
TTITLE0=In the Woods
TTITLE1=Soloflutes
TTITLE2=Rainforest
TTITLE3=Petite Fleur
TTITLE4=Voice of the Night
TTITLE5=Sitara
EXTD=YEAR: 1991
EXTT0=
EXTT1=
EXTT2=
EXTT3=
EXTT4=
EXTT5=
PLAYORDER=
